<svg version="1.1" viewBox="0.0 0.0 175.76902887139107 173.20472440944883" fill="none" stroke="none" stroke-linecap="square" stroke-miterlimit="10" xmlns:xlink="http://www.w3.org/1999/xlink" xmlns="http://www.w3.org/2000/svg"><clipPath id="p.0"><path d="m0 0l175.76903 0l0 173.20473l-175.76903 0l0 -173.20473z" clip-rule="nonzero"/></clipPath><g clip-path="url(#p.0)"><path fill="#000000" fill-opacity="0.0" d="m0 0l175.76903 0l0 173.20473l-175.76903 0z" fill-rule="evenodd"/><path fill="#8ecae6" d="m138.61124 45.532303l0 0c0 -14.705509 -11.013969 -26.626678 -24.600388 -26.626678l0 0c-6.5244293 0 -12.781639 2.8053036 -17.395103 7.798773c-4.6134644 4.993471 -7.205284 11.766069 -7.205284 18.827906l0 0c0 14.705505 11.013969 26.626678 24.600388 26.626678l0 0c13.586418 0 24.600388 -11.921173 24.600388 -26.626678z" fill-rule="evenodd"/><path fill="#8ecae6" d="m167.52934 75.11975c0.25219727 -11.08107 -5.0515137 -21.443478 -13.86467 -27.08886c-8.813171 -5.645378 -19.757843 -5.691063 -28.610977 -0.11942291c-8.853134 5.571636 -14.23053 15.889465 -14.057297 26.972305z" fill-rule="evenodd"/><path fill="#8ecae6" d="m130.89104 75.22012c0.28579712 -12.556847 -5.724266 -24.29932 -15.711166 -30.696552c-9.986908 -6.397232 -22.389183 -6.4490013 -32.42138 -0.13533401c-10.032196 6.313671 -16.125748 18.005623 -15.929443 30.564484z" fill-rule="evenodd"/><path fill="#8ecae6" d="m167.53792 74.36613l0 0c0 -7.5250397 -6.1002502 -13.62529 -13.62529 -13.62529l-122.45291 0c-3.6136513 0 -7.079298 1.4355164 -9.634537 3.9907532c-2.5552368 2.5552368 -3.990755 6.0208893 -3.990755 9.634537l0 0l0 0c0 7.5250397 6.100252 13.62529 13.625292 13.62529l122.45291 0c7.5250397 0 13.62529 -6.1002502 13.62529 -13.62529z" fill-rule="evenodd"/><path fill="#8ecae6" d="m40.257298 41.387627c-2.243782 -16.006773 8.593716 -30.914814 24.511944 -33.718597c15.918236 -2.8037825 31.197197 7.5041976 34.557526 23.314304c3.3603363 15.810104 -6.4054413 31.441181 -22.087967 35.35394c-15.682529 3.9127502 -31.646492 -5.2988167 -36.10685 -20.834469z" fill-rule="evenodd"/><path fill="#8ecae6" d="m24.797388 62.85516c-1.0321617 -11.0147705 6.7751694 -20.89581 17.729998 -22.43927c10.95483 -1.5434608 21.188374 5.795742 23.239788 16.666908c2.051422 10.871166 -4.8037643 21.435055 -15.56773 23.989986c-10.763962 2.5549316 -21.63532 -3.8013916 -24.688234 -14.434837z" fill-rule="evenodd"/><path fill="#219ebc" d="m153.63573 141.72337l0 0l0 0c-2.8401184 1.6581268 -6.216217 2.116394 -9.385574 1.2740173c-3.1693726 -0.84239197 -5.872406 -2.9164276 -7.51445 -5.765869l-14.388947 -24.969055c-3.4193878 -5.933647 -1.3969193 -13.542923 4.517311 -16.995789l0 0l0 0c5.9142227 -3.4528656 13.480629 -1.4417953 16.900017 4.491852l14.388947 24.969055l0 0c3.4193878 5.9336395 1.3969269 13.542923 -4.5173035 16.995789z" fill-rule="evenodd"/><path fill="#219ebc" d="m116.07873 133.42694l0 0l0 0c-1.8210144 1.065033 -3.9852066 1.3599701 -6.016487 0.81993103c-2.031273 -0.5400543 -3.7632446 -1.8708344 -4.8148956 -3.6996307l-9.203377 -16.004402c-2.1899414 -3.8082428 -0.89115906 -8.693344 2.9009018 -10.911179l0 0l0 0c3.7920685 -2.217842 8.641441 -0.92855835 10.831383 2.8796844l9.203377 16.00441l0 0c2.1899414 3.8082428 0.8911667 8.6933365 -2.9009018 10.911186z" fill-rule="evenodd"/><path fill="#ffb703" d="m46.47769 97.229866l7.9725266 42.820076l10.244179 0l7.9725266 -42.820076z" fill-rule="evenodd"/><path fill="#ffb703" d="m40.225624 119.2014l11.853958 47.85109l0 0l11.853954 -47.85109z" fill-rule="evenodd"/></g></svg>