<svg version="1.1" viewBox="0.0 0.0 175.76902887139107 173.20472440944883" fill="none" stroke="none" stroke-linecap="square" stroke-miterlimit="10" xmlns:xlink="http://www.w3.org/1999/xlink" xmlns="http://www.w3.org/2000/svg"><clipPath id="p.0"><path d="m0 0l175.76903 0l0 173.20473l-175.76903 0l0 -173.20473z" clip-rule="nonzero"/></clipPath><g clip-path="url(#p.0)"><path fill="#000000" fill-opacity="0.0" d="m0 0l175.76903 0l0 173.20473l-175.76903 0z" fill-rule="evenodd"/><path fill="#fb8500" d="m96.28032 96.436966c-11.577522 12.791702 -31.30249 13.8585205 -44.192112 2.390129c-12.889626 -11.468399 -14.124035 -31.183586 -2.7655869 -44.170204c11.358444 -12.986618 31.062435 -14.388523 44.145107 -3.14085c13.082672 11.247677 14.65197 30.939037 3.5158768 44.116825z" fill-rule="evenodd"/><path fill="#ffb703" d="m76.05185 8.217724l0 0l0 0c2.0913467 0 4.0970306 0.8307829 5.575836 2.3095856c1.4787979 1.4788027 2.3095856 3.4844904 2.3095856 5.5758324l0 15.770838c0 4.3549976 -3.530426 7.88542 -7.8854218 7.88542l0 0l0 0c-4.3549957 0 -7.8854218 -3.5304222 -7.8854218 -7.88542l0 -15.770838l0 0c0 -4.3549957 3.530426 -7.885418 7.8854218 -7.885418z" fill-rule="evenodd"/><path fill="#ffb703" d="m28.759548 32.80701l0 0l0 0c1.478508 -1.4785061 3.4837952 -2.309124 5.5747185 -2.309124c2.0909271 0 4.0962143 0.8306179 5.5747223 2.309124l5.581032 5.5810356c3.0788345 3.0788307 3.0788345 8.070606 0 11.149437l0 0l0 0c-3.0788307 3.0788345 -8.070606 3.0788345 -11.149441 0l-5.581032 -5.581032l0 0c-3.0788326 -3.0788345 -3.0788326 -8.070606 0 -11.149441z" fill-rule="evenodd"/><path fill="#ffb703" d="m2.4115038 75.34559l0 0l0 0c0 -2.0913467 0.8307829 -4.0970306 2.3095856 -5.575836c1.4788032 -1.4787979 3.4844904 -2.3095856 5.5758333 -2.3095856l15.770838 0c4.3549957 0 7.885418 3.530426 7.885418 7.8854218l0 0l0 0c0 4.3549957 -3.5304222 7.885414 -7.885418 7.885414l-15.770838 0l0 0c-4.3549967 0 -7.885419 -3.5304184 -7.885419 -7.885414z" fill-rule="evenodd"/><path fill="#ffb703" d="m123.347275 39.515797l0 0l0 0c1.478508 1.478508 2.3091278 3.4837914 2.3091278 5.5747185c0 2.0909271 -0.8306198 4.0962105 -2.3091278 5.5747185l-5.581032 5.5810356c-3.0788345 3.0788307 -8.07061 3.0788307 -11.149437 0l0 0l0 0c-3.0788345 -3.0788345 -3.0788345 -8.07061 0 -11.149441l5.581032 -5.581032l0 0c3.078827 -3.0788345 8.070602 -3.0788345 11.149437 0z" fill-rule="evenodd"/><path fill="#8ecae6" d="m56.065033 102.033325l0 0c0 -14.57663 10.91745 -26.393326 24.384796 -26.393326l0 0c6.4672546 0 12.669624 2.780716 17.24266 7.730423c4.573036 4.9497147 7.1421356 11.662956 7.1421356 18.662903l0 0c0 14.576637 -10.917442 26.393326 -24.384796 26.393326l0 0c-13.467346 0 -24.384796 -11.816689 -24.384796 -26.393326z" fill-rule="evenodd"/><path fill="#8ecae6" d="m27.400356 131.36148c-0.24999428 -10.983955 5.0072365 -21.255554 13.743168 -26.851463c8.735931 -5.5959015 19.584686 -5.6411896 28.360237 -0.118377686c8.775543 5.522812 14.105812 15.750214 13.934097 26.735939z" fill-rule="evenodd"/><path fill="#8ecae6" d="m63.71757 131.46097c-0.28328705 -12.4468 5.674099 -24.086365 15.5734825 -30.427536c9.899384 -6.3411636 22.19297 -6.392479 32.137245 -0.13414001c9.944275 6.2583313 15.984428 17.847824 15.789841 30.296616z" fill-rule="evenodd"/><path fill="#8ecae6" d="m27.391855 130.61446l0 0c0 -7.459091 6.046789 -13.505875 13.505884 -13.505875l121.379776 0c3.5819702 0 7.0172577 1.4229355 9.550095 3.95578c2.5328522 2.5328445 3.95578 5.9681168 3.95578 9.550095l0 0l0 0c0 7.4591064 -6.0467834 13.50589 -13.505875 13.50589l-121.379776 0c-7.459095 0 -13.505884 -6.0467834 -13.505884 -13.50589z" fill-rule="evenodd"/><path fill="#8ecae6" d="m124.793015 123.53259l0 0c15.550583 -0.36231995 28.19606 -12.644707 29.011154 -28.178139c0.81507874 -15.533432 -10.47551 -29.071815 -25.902779 -31.059631c-15.427269 -1.987812 -29.78096 8.2462845 -32.930115 23.478966c-3.1491547 15.232689 5.9697876 30.319443 20.9206 34.611885z" fill-rule="evenodd"/><path fill="#8ecae6" d="m147.1611 137.77722l0 0c10.883392 0.6808777 20.399841 -7.266327 21.670135 -18.096764c1.2702789 -10.830421 -6.1489563 -20.763992 -16.894516 -22.619957c-10.745575 -1.8559647 -21.067001 5.0134506 -23.503174 15.642502c-2.43618 10.629059 3.8631897 21.307953 14.344421 24.31717z" fill-rule="evenodd"/></g></svg>