<svg version="1.1" viewBox="0.0 0.0 175.76902887139107 173.20472440944883" fill="none" stroke="none" stroke-linecap="square" stroke-miterlimit="10" xmlns:xlink="http://www.w3.org/1999/xlink" xmlns="http://www.w3.org/2000/svg"><clipPath id="p.0"><path d="m0 0l175.76903 0l0 173.20473l-175.76903 0l0 -173.20473z" clip-rule="nonzero"/></clipPath><g clip-path="url(#p.0)"><path fill="#000000" fill-opacity="0.0" d="m0 0l175.76903 0l0 173.20473l-175.76903 0z" fill-rule="evenodd"/><path fill="#219ebc" d="m138.61124 45.532303l0 0c0 -14.705509 -11.013969 -26.626678 -24.600388 -26.626678l0 0c-6.5244293 0 -12.781639 2.8053036 -17.395103 7.798773c-4.6134644 4.993471 -7.205284 11.766069 -7.205284 18.827906l0 0c0 14.705505 11.013969 26.626678 24.600388 26.626678l0 0c13.586418 0 24.600388 -11.921173 24.600388 -26.626678z" fill-rule="evenodd"/><path fill="#219ebc" d="m167.52934 75.11975c0.25219727 -11.08107 -5.0515137 -21.443478 -13.86467 -27.08886c-8.813171 -5.645378 -19.757843 -5.691063 -28.610977 -0.11942291c-8.853134 5.571636 -14.23053 15.889465 -14.057297 26.972305z" fill-rule="evenodd"/><path fill="#219ebc" d="m130.89104 75.22012c0.28579712 -12.556847 -5.724266 -24.29932 -15.711166 -30.696552c-9.986908 -6.397232 -22.389183 -6.4490013 -32.42138 -0.13533401c-10.032196 6.313671 -16.125748 18.005623 -15.929443 30.564484z" fill-rule="evenodd"/><path fill="#219ebc" d="m167.53792 74.36613l0 0c0 -7.5250397 -6.1002502 -13.62529 -13.62529 -13.62529l-122.45291 0c-3.6136513 0 -7.079298 1.4355164 -9.634537 3.9907532c-2.5552368 2.5552368 -3.990755 6.0208893 -3.990755 9.634537l0 0l0 0c0 7.5250397 6.100252 13.62529 13.625292 13.62529l122.45291 0c7.5250397 0 13.62529 -6.1002502 13.62529 -13.62529z" fill-rule="evenodd"/><path fill="#219ebc" d="m40.257298 41.387627c-2.243782 -16.006773 8.593716 -30.914814 24.511944 -33.718597c15.918236 -2.8037825 31.197197 7.5041976 34.557526 23.314304c3.3603363 15.810104 -6.4054413 31.441181 -22.087967 35.35394c-15.682529 3.9127502 -31.646492 -5.2988167 -36.10685 -20.834469z" fill-rule="evenodd"/><path fill="#219ebc" d="m24.797388 62.85516c-1.0321617 -11.0147705 6.7751694 -20.89581 17.729998 -22.43927c10.95483 -1.5434608 21.188374 5.795742 23.239788 16.666908c2.051422 10.871166 -4.8037643 21.435055 -15.56773 23.989986c-10.763962 2.5549316 -21.63532 -3.8013916 -24.688234 -14.434837z" fill-rule="evenodd"/><path fill="#8ecae6" d="m83.64581 143.9776l0 0l0 0c-2.313858 2.338913 -5.457115 3.6578674 -8.738289 3.6667023c-3.281166 0.008834839 -6.4314804 -1.2931671 -8.757904 -3.6195831l-20.377697 -20.3777c-4.8445206 -4.8445206 -4.8657303 -12.720139 -0.04737091 -17.590675l0 0l0 0c4.8183556 -4.8705444 12.651669 -4.8916397 17.49619 -0.04711914l20.3777 20.3777l0 0c4.8445206 4.8445206 4.8657303 12.720131 0.04737091 17.590675z" fill-rule="evenodd"/><path fill="#8ecae6" d="m83.64795 106.05537l0 0l0 0c2.3389206 2.313858 3.657875 5.457115 3.66671 8.738289c0.008834839 3.2811737 -1.2931671 6.4314804 -3.6195908 8.757904l-20.377697 20.3777c-4.8445206 4.844513 -12.720135 4.8657227 -17.59068 0.04736328l0 0l0 0c-4.8705406 -4.8183594 -4.891636 -12.651657 -0.047115326 -17.496185l20.377697 -20.377693l0 0c4.8445206 -4.844528 12.720139 -4.8657303 17.590675 -0.04737854z" fill-rule="evenodd"/><path fill="#8ecae6" d="m133.41182 126.21265l0 0l0 0c-1.4284058 1.4451218 -3.3690796 2.2602844 -5.3950806 2.2661743c-2.0259933 0.0058898926 -3.971367 -0.79798126 -5.4081573 -2.234764l-12.598244 -12.598244c-2.991951 -2.9919586 -3.006096 -7.8569336 -0.031585693 -10.866234l0 0l0 0c2.9745102 -3.0093002 7.811287 -3.0233612 10.803238 -0.031402588l12.598244 12.598236l0 0c2.9919586 2.9919586 3.0061035 7.8569336 0.031585693 10.866234z" fill-rule="evenodd"/><path fill="#8ecae6" d="m133.41335 102.78788l0 0l0 0c1.4451141 1.4284134 2.2602844 3.3690796 2.2661743 5.3950806c0.0058898926 2.026001 -0.7979889 3.9713745 -2.2347717 5.408165l-12.598244 12.598236c-2.9919586 2.9919586 -7.8569336 3.0061035 -10.866234 0.031593323l0 0l0 0c-3.0093002 -2.9745102 -3.0233612 -7.811287 -0.031402588 -10.803246l12.598236 -12.598244l0 0c2.9919586 -2.991951 7.8569336 -3.006096 10.866241 -0.031585693z" fill-rule="evenodd"/></g></svg>