<svg version="1.1" viewBox="0.0 0.0 175.76902887139107 173.20472440944883" fill="none" stroke="none" stroke-linecap="square" stroke-miterlimit="10" xmlns:xlink="http://www.w3.org/1999/xlink" xmlns="http://www.w3.org/2000/svg"><clipPath id="p.0"><path d="m0 0l175.76903 0l0 173.20473l-175.76903 0l0 -173.20473z" clip-rule="nonzero"/></clipPath><g clip-path="url(#p.0)"><path fill="#000000" fill-opacity="0.0" d="m0 0l175.76903 0l0 173.20473l-175.76903 0z" fill-rule="evenodd"/><path fill="#219ebc" d="m101.35951 53.54305l0 0c0 -11.039486 -8.271675 -19.988758 -18.475311 -19.988758l0 0c-4.8999557 0 -9.599228 2.1059532 -13.064018 5.8545723c-3.464798 3.748619 -5.411293 8.83284 -5.411293 14.134186l0 0c0 11.039486 8.271675 19.988758 18.475311 19.988758l0 0c10.203636 0 18.475311 -8.949272 18.475311 -19.988758z" fill-rule="evenodd"/><path fill="#219ebc" d="m123.07751 75.754715l0 0c0.18949127 -8.318657 -3.793663 -16.097843 -10.412521 -20.33591c-6.6188583 -4.2380676 -14.838547 -4.272377 -21.487434 -0.08969116c-6.6488953 4.182686 -10.687401 11.928394 -10.557251 20.248379z" fill-rule="evenodd"/><path fill="#219ebc" d="m95.56151 75.830086l0 0c0.21472931 -9.426521 -4.298897 -18.241741 -11.799255 -23.044235c-7.5003586 -4.802494 -16.814743 -4.8413734 -24.349133 -0.101638794c-7.5343895 4.7397385 -12.110748 13.517014 -11.963257 22.945053z" fill-rule="evenodd"/><path fill="#219ebc" d="m123.083954 75.18873l0 0c0 -5.649086 -4.579483 -10.228569 -10.228569 -10.228569l-91.97276 0c-2.7127838 0 -5.314458 1.077652 -7.232686 2.9958801c-1.9182281 1.9182281 -2.9958773 4.519905 -2.9958773 7.232689l0 0l0 0c0 5.6490784 4.579484 10.228561 10.228563 10.228561l91.97276 0c5.649086 0 10.228569 -4.579483 10.228569 -10.228561z" fill-rule="evenodd"/><path fill="#219ebc" d="m27.494196 50.432903c-1.685791 -12.01614 6.4525433 -23.208061 18.407148 -25.313696c11.954601 -2.1056347 23.429825 5.6316338 25.954468 17.500021c2.524643 11.868389 -4.8084793 23.60323 -16.585926 26.541668c-11.777451 2.9384384 -23.767239 -3.9753952 -27.118301 -15.637596z" fill-rule="evenodd"/><path fill="#219ebc" d="m15.883415 66.548l0 0c-0.7754812 -8.268703 5.087511 -15.686604 13.314604 -16.845734c8.227095 -1.1591339 15.912901 4.349846 17.454142 12.510654c1.5412369 8.160809 -3.6063805 16.091473 -11.690018 18.01019c-8.083639 1.9187241 -16.248575 -2.852089 -18.542217 -10.834312z" fill-rule="evenodd"/><path fill="#8ecae6" d="m48.065033 78.43059l0 0c0 -14.576637 10.917446 -26.393333 24.384796 -26.393333l0 0c6.4672546 0 12.669624 2.7807198 17.24266 7.730427c4.573036 4.949711 7.1421356 11.66296 7.1421356 18.662907l0 0c0 14.57663 -10.917442 26.393326 -24.384796 26.393326l0 0c-13.46735 0 -24.384796 -11.816696 -24.384796 -26.393326z" fill-rule="evenodd"/><path fill="#8ecae6" d="m19.400356 107.75874c-0.24999428 -10.983963 5.0072365 -21.255554 13.743168 -26.851463c8.735931 -5.595909 19.584686 -5.6411896 28.360233 -0.118377686c8.775547 5.522812 14.105816 15.750214 13.934101 26.735931z" fill-rule="evenodd"/><path fill="#8ecae6" d="m55.71757 107.85823c-0.28328705 -12.4468 5.674099 -24.086372 15.5734825 -30.427536c9.899384 -6.3411713 22.19297 -6.3924866 32.137245 -0.13414764c9.944275 6.258339 15.984428 17.847824 15.789841 30.296623z" fill-rule="evenodd"/><path fill="#8ecae6" d="m19.391855 107.01172l0 0c0 -7.459091 6.046791 -13.505882 13.505884 -13.505882l121.379776 0c3.5819702 0 7.0172577 1.4229355 9.550095 3.95578c2.5328522 2.5328445 3.95578 5.9681244 3.95578 9.550102l0 0l0 0c0 7.459099 -6.0467834 13.505882 -13.505875 13.505882l-121.379776 0c-7.459093 0 -13.505884 -6.0467834 -13.505884 -13.505882z" fill-rule="evenodd"/><path fill="#8ecae6" d="m116.793015 99.929855l0 0c15.550583 -0.36231995 28.19606 -12.644707 29.011154 -28.178146c0.81507874 -15.533432 -10.47551 -29.071812 -25.902779 -31.059624c-15.427269 -1.9878159 -29.78096 8.246277 -32.930115 23.478966c-3.1491547 15.232689 5.9697876 30.319435 20.9206 34.611885z" fill-rule="evenodd"/><path fill="#8ecae6" d="m139.1611 114.174484l0 0c10.883392 0.68087006 20.399841 -7.2663345 21.670135 -18.096764c1.2702789 -10.830429 -6.1489563 -20.764 -16.894516 -22.619965c-10.745575 -1.8559647 -21.067001 5.0134506 -23.503181 15.642509c-2.4361725 10.629051 3.8631897 21.307953 14.344429 24.317162z" fill-rule="evenodd"/></g></svg>