<svg version="1.1" viewBox="0.0 0.0 175.76902887139107 173.20472440944883" fill="none" stroke="none" stroke-linecap="square" stroke-miterlimit="10" xmlns:xlink="http://www.w3.org/1999/xlink" xmlns="http://www.w3.org/2000/svg"><clipPath id="p.0"><path d="m0 0l175.76903 0l0 173.20473l-175.76903 0l0 -173.20473z" clip-rule="nonzero"/></clipPath><g clip-path="url(#p.0)"><path fill="#000000" fill-opacity="0.0" d="m0 0l175.76903 0l0 173.20473l-175.76903 0z" fill-rule="evenodd"/><path fill="#fb8500" d="m81.079765 125.62498l0 0c-20.303364 -2.96801 -34.437313 -21.722076 -31.696404 -42.057343c2.7409134 -20.335262 21.335846 -34.677925 41.70047 -32.164448c20.364632 2.5134735 34.914215 20.946949 32.628494 41.338398c-2.2857285 20.391441 -20.55545 35.146133 -40.97117 33.088448z" fill-rule="evenodd"/><path fill="#ffb703" d="m86.49149 8.571776l0 0l0 0c2.493454 0 4.884781 0.9905205 6.6479187 2.7536573c1.7631378 1.7631378 2.7536545 4.1544647 2.7536545 6.647917l0 18.771656l0 0c0 5.1923447 -4.2092285 9.401573 -9.401573 9.401573l0 0l0 0c-5.1923447 0 -9.401573 -4.2092285 -9.401573 -9.401573l0 -18.771656l0 0c0 -5.1923456 4.2092285 -9.401574 9.401573 -9.401574z" fill-rule="evenodd"/><path fill="#ffb703" d="m33.812176 37.87797l0 0l0 0c1.7625427 -1.7625389 4.153061 -2.7527237 6.645668 -2.7527237c2.492611 0 4.883129 0.9901848 6.645672 2.7527237l6.645668 6.645672c3.6703033 3.6702995 3.6703033 9.621037 0 13.291336l0 0l0 0c-3.6703033 3.6703033 -9.621037 3.6703033 -13.29134 0l-6.645668 -6.645668l0 0c-3.6703014 -3.6702995 -3.6703014 -9.621037 0 -13.29134z" fill-rule="evenodd"/><path fill="#ffb703" d="m2.4173517 88.555435l0 0l0 0c0 -2.493454 0.99052024 -4.884781 2.7536573 -6.6479187c1.7631373 -1.7631378 4.1544647 -2.753662 6.6479177 -2.753662l18.771652 0l0 0c5.1923447 0 9.401573 4.2092285 9.401573 9.401581l0 0l0 0c0 5.1923447 -4.2092285 9.401573 -9.401573 9.401573l-18.771652 0l0 0c-5.1923466 0 -9.401575 -4.2092285 -9.401575 -9.401573z" fill-rule="evenodd"/><path fill="#ffb703" d="m139.90497 37.655426l0 0l0 0c1.7625427 1.7625389 2.7527313 4.153057 2.7527313 6.645668c0 2.492607 -0.9901886 4.883129 -2.7527313 6.645668l-6.6456757 6.645668c-3.670288 3.6703033 -9.621033 3.6703033 -13.291328 0l0 0l0 0c-3.6703033 -3.6702995 -3.6703033 -9.621037 0 -13.291336l6.645668 -6.645668l0 0c3.6703033 -3.6703033 9.621033 -3.6703033 13.291336 0z" fill-rule="evenodd"/><path fill="#ffb703" d="m31.689457 139.23248l0 0l0 0c-1.7625408 -1.7625427 -2.7527256 -4.153061 -2.7527256 -6.6456757c0 -2.4925995 0.9901848 -4.8831253 2.7527256 -6.6456604l6.645668 -6.6456757c3.6703033 -3.6702957 9.621037 -3.6702957 13.29134 0l0 0l0 0c3.6703033 3.6703033 3.6703033 9.621033 0 13.291336l-6.645668 6.6456757l0 0c-3.6703033 3.6703033 -9.621037 3.6703033 -13.29134 0z" fill-rule="evenodd"/><path fill="#ffb703" d="m86.485306 168.54028l0 0l0 0c-2.4934464 0 -4.8847733 -0.9905243 -6.647911 -2.753662c-1.7631378 -1.7631378 -2.753662 -4.1544647 -2.753662 -6.6479187l0 -18.771652l0 0c0 -5.192337 4.2092285 -9.401566 9.401573 -9.401566l0 0l0 0c5.1923523 0 9.401581 4.2092285 9.401581 9.401566l0 18.771652l0 0c0 5.1923523 -4.2092285 9.401581 -9.401581 9.401581z" fill-rule="evenodd"/><path fill="#ffb703" d="m139.89917 139.49162l0 0l0 0c-1.7625427 1.7625427 -4.153061 2.7527313 -6.6456757 2.7527313c-2.4925995 0 -4.8831177 -0.9901886 -6.645668 -2.7527313l-6.645668 -6.6456604c-3.6703033 -3.6703033 -3.6703033 -9.62104 0 -13.291344l0 0l0 0c3.6703033 -3.6703033 9.621033 -3.6703033 13.291336 0l6.6456757 6.645668l0 0c3.6703033 3.6703033 3.6703033 9.621033 0 13.291336z" fill-rule="evenodd"/><path fill="#ffb703" d="m171.29399 88.56932l0 0l0 0c0 2.493454 -0.9905243 4.884781 -2.753662 6.6479187c-1.7631378 1.7631378 -4.1544647 2.7536545 -6.6479187 2.7536545l-18.771652 0l0 0c-5.192337 0 -9.401566 -4.2092285 -9.401566 -9.401573l0 0l0 0c0 -5.1923447 4.2092285 -9.401573 9.401566 -9.401573l18.771652 0l0 0c5.1923523 0 9.401581 4.2092285 9.401581 9.401573z" fill-rule="evenodd"/></g></svg>